<svg xmlns="http://www.w3.org/2000/svg" xmlns:xlink="http://www.w3.org/1999/xlink" width="500" zoomAndPan="magnify" viewBox="0 0 375 374.999991" height="500" preserveAspectRatio="xMidYMid meet" version="1.0"><defs><clipPath id="c80f011d3e"><path d="M 73 73 L 279 73 L 279 302 L 73 302 Z M 73 73 " clip-rule="nonzero"/></clipPath><clipPath id="f3e485d4e7"><path d="M 187.496094 25.300781 L 349.777344 187.578125 L 187.496094 349.859375 L 25.214844 187.578125 Z M 187.496094 25.300781 " clip-rule="nonzero"/></clipPath><clipPath id="39fcf89b7d"><path d="M 187.496094 25.300781 L 349.777344 187.578125 L 187.496094 349.859375 L 25.214844 187.578125 Z M 187.496094 25.300781 " clip-rule="nonzero"/></clipPath></defs><g clip-path="url(#c80f011d3e)"><g clip-path="url(#f3e485d4e7)"><g clip-path="url(#39fcf89b7d)"><path fill="#ff6a33" d="M 106.402344 268.578125 C 84.871094 247.046875 73.011719 218.246094 73.011719 187.488281 C 73.011719 156.726562 84.871094 127.925781 106.40625 106.390625 C 127.121094 85.675781 154.824219 73.832031 184.402344 73.039062 C 215.871094 72.207031 246.5625 84.363281 268.589844 106.390625 C 273.554688 111.359375 273.554688 119.414062 268.589844 124.378906 C 263.621094 129.347656 255.566406 129.347656 250.601562 124.378906 C 233.480469 107.261719 209.597656 97.824219 185.074219 98.472656 C 162.035156 99.085938 140.484375 108.285156 124.390625 124.378906 C 107.664062 141.101562 98.453125 163.511719 98.453125 187.480469 C 98.453125 211.449219 107.664062 233.859375 124.390625 250.582031 C 140.484375 266.675781 162.035156 275.875 185.074219 276.488281 C 209.1875 277.128906 232.675781 268.015625 249.71875 251.449219 C 254.6875 246.109375 254.574219 237.71875 249.378906 232.519531 C 244.0625 227.207031 235.410156 227.207031 230.09375 232.519531 C 218.128906 244.488281 202.132812 251.078125 185.050781 251.074219 C 167.972656 251.074219 151.972656 244.488281 140.007812 232.519531 C 115.167969 207.679688 115.171875 167.269531 140.007812 142.433594 C 151.871094 130.570312 167.726562 123.980469 184.65625 123.878906 C 201.882812 123.773438 218.023438 130.363281 230.09375 142.433594 C 235.0625 147.398438 235.0625 155.457031 230.09375 160.421875 C 225.128906 165.390625 217.070312 165.390625 212.105469 160.421875 C 204.878906 153.199219 195.183594 149.253906 184.8125 149.316406 C 174.617188 149.378906 165.097656 153.320312 157.996094 160.421875 C 143.078125 175.34375 143.082031 199.613281 157.996094 214.53125 C 165.15625 221.691406 174.765625 225.636719 185.050781 225.640625 C 195.339844 225.640625 204.945312 221.695312 212.109375 214.535156 C 227.34375 199.300781 252.136719 199.300781 267.371094 214.535156 C 282.195312 229.359375 282.597656 253.234375 268.566406 268.546875 L 268.59375 268.574219 L 267.359375 269.785156 C 245.425781 291.050781 215.292969 302.746094 184.398438 301.925781 C 154.824219 301.144531 127.121094 289.300781 106.402344 268.578125 Z M 106.402344 268.578125 " fill-opacity="1" fill-rule="nonzero"/></g></g></g></svg>